<svg width="34" height="33" viewBox="0 0 34 33" fill="none" xmlns="http://www.w3.org/2000/svg">
<path d="M17 0C8.11705 0 0.915833 7.20122 0.915833 16.0842C0.915833 23.6271 6.1091 29.9565 13.1147 31.6949V20.9995H9.79818V16.0842H13.1147V13.9662C13.1147 8.49182 15.5924 5.95438 20.9671 5.95438C21.9861 5.95438 23.7445 6.15446 24.4638 6.35391V10.8092C24.0842 10.7693 23.4247 10.7494 22.6057 10.7494C19.9685 10.7494 18.9494 11.7486 18.9494 14.3458V16.0842H24.2032L23.3006 20.9995H18.9494V32.0507C26.9137 31.0889 33.0849 24.3077 33.0849 16.0842C33.0843 7.20122 25.883 0 17 0Z" fill="#4796A9"/>
</svg>
