<svg width="29" height="29" viewBox="0 0 29 29" fill="none" xmlns="http://www.w3.org/2000/svg">
<path d="M14.7012 12.1293V17.6075H22.3141C21.9798 19.3693 20.9766 20.8611 19.4721 21.8641L24.0629 25.4263C26.7377 22.9573 28.2809 19.3308 28.2809 15.0228C28.2809 14.0198 28.1909 13.0552 28.0237 12.1294L14.7012 12.1293Z" fill="#4285F4"/>
<path d="M6.77275 17.3937L5.73733 18.1863L2.07227 21.0411C4.39986 25.6577 9.17045 28.8469 14.7001 28.8469C18.5193 28.8469 21.7213 27.5867 24.0618 25.4263L19.4709 21.8641C18.2107 22.7129 16.6032 23.2273 14.7001 23.2273C11.0222 23.2273 7.89741 20.7454 6.77853 17.4018L6.77275 17.3937Z" fill="#34A853"/>
<path d="M2.073 8.36145C1.10857 10.2646 0.555664 12.4122 0.555664 14.7012C0.555664 16.9902 1.10857 19.1378 2.073 21.0409C2.073 21.0537 6.77972 17.3888 6.77972 17.3888C6.49681 16.54 6.32958 15.6399 6.32958 14.701C6.32958 13.7622 6.49681 12.862 6.77972 12.0133L2.073 8.36145Z" fill="#FBBC05"/>
<path d="M14.7004 6.18808C16.7836 6.18808 18.6354 6.9082 20.1143 8.29706L24.165 4.24632C21.7088 1.95733 18.5197 0.555542 14.7004 0.555542C9.17074 0.555542 4.39986 3.73188 2.07227 8.36137L6.77884 12.0135C7.89757 8.66998 11.0225 6.18808 14.7004 6.18808Z" fill="#EA4335"/>
</svg>
