<svg width="30" height="30" viewBox="0 0 30 30" fill="none" xmlns="http://www.w3.org/2000/svg">
<circle cx="14.5129" cy="14.5129" r="12.7813" stroke="#4796A9" stroke-width="3.46331"/>
<path d="M13.3519 20.6069H10.8979C10.6974 20.6069 10.5496 20.5647 10.4546 20.4803C10.3702 20.3853 10.3279 20.2375 10.3279 20.037V9.77764C10.3279 9.5771 10.3702 9.43461 10.4546 9.35017C10.5496 9.25518 10.6974 9.20768 10.8979 9.20768H15.7426C17.178 9.20768 18.1596 9.49266 18.6874 10.0626C19.2151 10.6326 19.479 11.3767 19.479 12.295V14.3215C19.479 15.2398 19.2151 15.9839 18.6874 16.5539C18.1596 17.1238 17.178 17.4088 15.7426 17.4088H13.9219V20.037C13.9219 20.2375 13.8744 20.3853 13.7794 20.4803C13.6949 20.5647 13.5524 20.6069 13.3519 20.6069ZM13.8902 12.1683V14.559H15.3151C15.6212 14.559 15.8217 14.4798 15.9167 14.3215C16.0117 14.1632 16.0592 13.9838 16.0592 13.7832V12.9441C16.0592 12.7436 16.0117 12.5641 15.9167 12.4058C15.8217 12.2475 15.6212 12.1683 15.3151 12.1683H13.8902Z" fill="#4796A9"/>
</svg>
