<svg width="31" height="19" viewBox="0 0 31 19" fill="none" xmlns="http://www.w3.org/2000/svg">
<path fill-rule="evenodd" clip-rule="evenodd" d="M14.4414 3.63526L7.10479 7.03307L5.92123 4.4775L15.2351 0.164005C15.3726 0.10031 15.5143 0.0566552 15.6568 0.0318333C16.4027 -0.115512 17.1807 0.256961 17.5167 0.976844L20.4778 7.32195C20.5245 7.40455 20.5683 7.48961 20.6091 7.57704L20.7051 7.7827C21.1907 8.82323 21.1404 9.96455 20.681 10.9115C19.2162 10.7613 17.6597 10.7177 16.0353 10.8164C14.3418 10.9193 12.8252 11.3228 11.4835 11.7442C11.2622 11.8137 11.0504 11.882 10.8459 11.9488C10.075 10.2014 10.8304 8.12443 12.596 7.3005L15.6655 5.86802C15.9862 5.59929 16.2217 5.17777 16.0254 4.44104L15.8567 4.07947C15.4674 3.51802 14.9141 3.50582 14.4414 3.63526ZM29.5147 6.14827C29.5147 7.87977 28.111 9.28344 26.3795 9.28344C24.648 9.28344 23.2444 7.87977 23.2444 6.14827C23.2444 4.41677 24.648 3.0131 26.3795 3.0131C28.111 3.0131 29.5147 4.41677 29.5147 6.14827ZM24.3889 13.743C26.7648 14.4715 28.6939 15.5071 29.8161 16.5538L27.7698 18.7476C27.0956 18.1188 25.6314 17.2618 23.5094 16.6112C21.4209 15.9708 18.7993 15.5633 15.8825 15.7405C14.7697 15.8081 13.712 16.076 12.594 16.4272C12.2604 16.532 11.9063 16.6498 11.5397 16.7717L11.5396 16.7718L11.5395 16.7718C10.7445 17.0362 9.891 17.3201 9.06288 17.5328C6.44689 18.2046 3.5622 18.3298 0 16.3236L1.47221 13.7096C4.21736 15.2558 6.27464 15.1515 8.31666 14.627C9.04652 14.4396 9.72313 14.214 10.4566 13.9695L10.4566 13.9695L10.4566 13.9695C10.8476 13.8391 11.2548 13.7034 11.6948 13.5651C12.899 13.1869 14.2277 12.8355 15.7006 12.746C18.9985 12.5457 21.9794 13.0041 24.3889 13.743Z" fill="#4796A9"/>
</svg>
