<svg width="23" height="28" viewBox="0 0 23 28" fill="none" xmlns="http://www.w3.org/2000/svg">
<path fill-rule="evenodd" clip-rule="evenodd" d="M18.1771 3.62461C18.843 2.9587 19.6793 2.50243 20.5836 2.29826V16.2933H18.1614C18.0072 16.2933 17.8605 16.3253 17.7276 16.3831H16.7294V7.11963C16.7294 5.80874 17.2501 4.55153 18.1771 3.62461ZM17.0729 18.5601H15.6409C15.0398 18.5601 14.5525 18.0727 14.5525 17.4716V7.11963C14.5525 5.2314 15.3025 3.42047 16.6377 2.08528C17.9729 0.750086 19.7838 0 21.6721 0C22.2732 0 22.7605 0.487325 22.7605 1.08847V17.4716L22.7605 17.479V24.9432C22.7605 25.6854 22.4657 26.3973 21.9408 26.9222C21.4159 27.4471 20.704 27.742 19.9617 27.742H19.8717C19.1294 27.742 18.4175 27.4471 17.8926 26.9222C17.3678 26.3973 17.0729 25.6854 17.0729 24.9432V18.5601ZM19.2498 18.5601V24.9432C19.2498 25.1081 19.3154 25.2663 19.432 25.3829C19.5486 25.4995 19.7068 25.565 19.8717 25.565H19.9617C20.1267 25.565 20.2848 25.4995 20.4014 25.3829C20.518 25.2663 20.5836 25.1081 20.5836 24.9432V18.5601H19.2498ZM6.16298 12.2425C4.34838 12.2241 2.50665 10.2911 2.50665 7.38996C2.50665 4.47488 4.3661 2.53729 6.18911 2.53729C8.01211 2.53729 9.87154 4.47487 9.87154 7.38996C9.87154 10.2911 8.02983 12.2241 6.21524 12.2425H6.16298ZM8.58072 13.8225C10.7007 12.6941 12.0485 10.116 12.0485 7.38996C12.0485 3.74265 9.63591 0.360352 6.18911 0.360352C2.74231 0.360352 0.329712 3.74264 0.329712 7.38996C0.329712 10.153 1.71426 12.7639 3.8841 13.8675L3.0338 24.4963C3.03149 24.5252 3.03033 24.5541 3.03033 24.5831C3.03033 25.4209 3.36318 26.2244 3.95556 26.8168C4.5424 27.4036 5.33634 27.7357 6.16557 27.7419C6.58387 27.7569 7.00107 27.6887 7.39293 27.5411C7.79215 27.3907 8.15681 27.1609 8.46486 26.8657C8.77291 26.5705 9.01793 26.216 9.18519 25.8235C9.35245 25.431 9.43849 25.0087 9.43809 24.5821C9.43806 24.5535 9.43691 24.5248 9.43462 24.4963L8.58072 13.8225ZM6.22646 14.4194H6.44458L7.26056 24.6192C7.25636 24.7398 7.22995 24.8588 7.18253 24.97C7.13053 25.0921 7.05436 25.2023 6.95862 25.294C6.86289 25.3857 6.74954 25.4572 6.62541 25.5039C6.50132 25.5507 6.36905 25.5718 6.23654 25.566C6.22077 25.5654 6.205 25.565 6.18922 25.565C5.92878 25.565 5.67903 25.4616 5.49489 25.2774C5.31911 25.1016 5.21685 24.8661 5.20791 24.6186L6.02385 14.4194H6.15175C6.16419 14.4195 6.17664 14.4196 6.18911 14.4196C6.20157 14.4196 6.21403 14.4195 6.22646 14.4194Z" fill="#4796A9"/>
</svg>
