<svg width="34" height="33" viewBox="0 0 34 33" fill="none" xmlns="http://www.w3.org/2000/svg">
<path fill-rule="evenodd" clip-rule="evenodd" d="M33.0843 16.0842C33.0843 24.9673 25.8831 32.1684 17 32.1684C8.11698 32.1684 0.915833 24.9673 0.915833 16.0842C0.915833 7.20115 8.11698 0 17 0C25.8831 0 33.0843 7.20115 33.0843 16.0842ZM17.5764 11.8741C16.012 12.5248 12.8854 13.8716 8.19648 15.9144C7.43508 16.2172 7.03622 16.5134 6.99991 16.803C6.93855 17.2925 7.55152 17.4853 8.38624 17.7477C8.49978 17.7835 8.61743 17.8204 8.73804 17.8597C9.55927 18.1266 10.664 18.4389 11.2383 18.4513C11.7592 18.4626 12.3406 18.2478 12.9825 17.807C17.3635 14.8497 19.625 13.355 19.7669 13.3228C19.8671 13.3 20.0059 13.2715 20.1 13.3551C20.194 13.4386 20.1848 13.5969 20.1748 13.6394C20.1141 13.8983 17.7079 16.1353 16.4627 17.2929C16.0745 17.6538 15.7992 17.9098 15.7429 17.9683C15.6168 18.0992 15.4883 18.2231 15.3648 18.3422C14.6018 19.0777 14.0297 19.6292 15.3965 20.5299C16.0533 20.9627 16.5789 21.3206 17.1032 21.6777C17.6758 22.0677 18.247 22.4566 18.9859 22.941C19.1742 23.0644 19.354 23.1926 19.5291 23.3175C20.1955 23.7925 20.7942 24.2194 21.5339 24.1513C21.9637 24.1117 22.4076 23.7076 22.6331 22.5023C23.1659 19.6538 24.2133 13.4819 24.4554 10.9386C24.4766 10.7157 24.4499 10.4306 24.4285 10.3054C24.4071 10.1802 24.3623 10.0018 24.1996 9.86981C24.0069 9.71344 23.7094 9.68046 23.5763 9.68281C22.9713 9.69347 22.0432 10.0162 17.5764 11.8741Z" fill="#4796A9"/>
</svg>
