<svg width="33" height="33" viewBox="0 0 33 33" fill="none" xmlns="http://www.w3.org/2000/svg">
<path d="M0.915833 32.1684L3.177 23.9078C1.7817 21.4898 1.04853 18.7488 1.04987 15.9381C1.05389 7.15077 8.20466 0 16.9907 0C21.2543 0.00134035 25.2566 1.66204 28.267 4.67514C31.2761 7.68825 32.9328 11.6932 32.9315 15.9529C32.9274 24.7415 25.7767 31.8923 16.9907 31.8923C14.3234 31.891 11.6949 31.2221 9.36674 29.9515L0.915833 32.1684ZM9.75813 27.0657C12.0046 28.3994 14.1491 29.1982 16.9853 29.1995C24.2875 29.1995 30.236 23.2564 30.24 15.9502C30.2427 8.62918 24.3224 2.69411 16.996 2.69142C9.68843 2.69142 3.74397 8.63454 3.74129 15.9395C3.73995 18.9217 4.61386 21.1548 6.08154 23.491L4.74253 28.3806L9.75813 27.0657ZM25.0207 19.742C24.9215 19.5758 24.6561 19.4766 24.2567 19.2769C23.8586 19.0772 21.9004 18.1135 21.5344 17.9808C21.1699 17.8481 20.9045 17.7811 20.6378 18.1805C20.3724 18.5786 19.6084 19.4766 19.3765 19.742C19.1446 20.0074 18.9114 20.0409 18.5133 19.8412C18.1152 19.6415 16.8312 19.222 15.3099 17.8642C14.1263 16.808 13.3261 15.5038 13.0943 15.1044C12.8624 14.7063 13.0701 14.4905 13.2685 14.2922C13.4481 14.1139 13.6666 13.8271 13.8663 13.5938C14.0687 13.3633 14.1344 13.1971 14.2684 12.9304C14.4011 12.665 14.3354 12.4318 14.2349 12.232C14.1344 12.0337 13.3382 10.0727 13.0071 9.27523C12.6828 8.49917 12.3544 8.60371 12.1104 8.59165L11.3464 8.57825C11.0811 8.57825 10.6495 8.67743 10.2849 9.07686C9.92031 9.47628 8.89092 10.4387 8.89092 12.3996C8.89092 14.3605 10.3184 16.2544 10.5168 16.5198C10.7165 16.7852 13.3248 20.809 17.3204 22.534C18.2707 22.9441 19.0132 23.1894 19.5909 23.373C20.5453 23.676 21.4138 23.6331 22.1001 23.5312C22.8654 23.4173 24.4564 22.5675 24.7888 21.6373C25.1212 20.7057 25.1212 19.9082 25.0207 19.742Z" fill="#4796A9"/>
</svg>
