<svg width="29" height="22" viewBox="0 0 29 22" fill="none" xmlns="http://www.w3.org/2000/svg">
<path d="M14.1509 4.51976C18.257 4.51995 22.2061 6.20978 25.182 9.23999C25.4061 9.47393 25.7643 9.47098 25.985 9.23337L28.1271 6.91791C28.2388 6.7974 28.3011 6.63416 28.3002 6.46431C28.2993 6.29446 28.2352 6.13201 28.1221 6.0129C20.3114 -2.0043 7.98911 -2.0043 0.178396 6.0129C0.0652525 6.13192 0.00105623 6.29432 1.29171e-05 6.46417C-0.0010304 6.63402 0.0611653 6.79731 0.172837 6.91791L2.31556 9.23337C2.53613 9.47134 2.89459 9.47429 3.11854 9.23999C6.0948 6.20958 10.0444 4.51975 14.1509 4.51976Z" fill="#4796A9"/>
<path d="M14.431 12.0761C16.7167 12.076 18.9208 12.9552 20.6151 14.5429C20.8442 14.7683 21.2052 14.7634 21.4286 14.5319L23.5964 12.2653C23.7105 12.1464 23.7739 11.9851 23.7722 11.8175C23.7706 11.6499 23.7041 11.4899 23.5876 11.3735C18.4282 6.40676 10.4381 6.40676 5.27871 11.3735C5.16217 11.4899 5.09567 11.6499 5.09414 11.8176C5.09261 11.9853 5.15618 12.1465 5.27057 12.2653L7.43771 14.5319C7.66109 14.7634 8.02208 14.7683 8.25124 14.5429C9.9444 12.9563 12.1468 12.0771 14.431 12.0761Z" fill="#4796A9"/>
<path d="M18.5056 17.7253C18.6189 17.6091 18.6813 17.4491 18.6781 17.2832C18.6748 17.1173 18.6062 16.9601 18.4885 16.8488C16.1476 14.7796 12.7191 14.7796 10.3782 16.8488C10.2603 16.96 10.1916 17.1172 10.1883 17.2831C10.1849 17.449 10.2472 17.609 10.3605 17.7253L14.0265 21.5913C14.134 21.7049 14.2805 21.7689 14.4333 21.7689C14.5862 21.7689 14.7327 21.7049 14.8401 21.5913L18.5056 17.7253Z" fill="#4796A9"/>
</svg>
